# MagicaVoxel @ Ephtracy

# group
o 

# material
mtllib house.mtl
usemtl palette

# normals
vn -1 0 0
vn 1 0 0
vn 0 0 1
vn 0 0 -1
vn 0 -1 0
vn 0 1 0

# texcoords
vt 0.115234 0.5
vt 0.177734 0.5
vt 0.537109 0.5
vt 0.587891 0.5

# verts
v 0 0.4 0
v 0 0.4 -0.8
v 0 0.8 0
v 0 0.8 -0.8
v 0 0.9 0
v 0 0.9 -0.8
v 0.1 0.9 -0.1
v 0.1 0.9 -0.7
v 0.1 1 -0.1
v 0.1 1 -0.7
v 0.2 1 -0.2
v 0.2 1 -0.6
v 0.2 1.1 -0.2
v 0.2 1.1 -0.6
v 0.3 1.1 -0.3
v 0.3 1.1 -0.5
v 0.3 1.2 -0.3
v 0.3 1.2 -0.5
v 0.7 0.4 -0.1
v 0.7 0.4 -0.7
v 0.7 0.7 -0.1
v 0.7 0.8 -0.1
v 0.7 0.8 -0.7
v 0.1 0.4 -0.1
v 0.1 0.4 -0.7
v 0.1 0.8 -0.1
v 0.1 0.8 -0.7
v 0.5 1.1 -0.3
v 0.5 1.1 -0.5
v 0.5 1.2 -0.3
v 0.5 1.2 -0.5
v 0.6 1 -0.2
v 0.6 1 -0.6
v 0.6 1.1 -0.2
v 0.6 1.1 -0.6
v 0.7 0.9 -0.1
v 0.7 0.9 -0.7
v 0.7 1 -0.1
v 0.7 1 -0.7
v 0.8 0.4 0
v 0.8 0.4 -0.8
v 0.8 0.8 0
v 0.8 0.8 -0.8
v 0.8 0.9 0
v 0.8 0.9 -0.8
v 0 0.4 0
v 0 0.8 0
v 0 0.9 0
v 0.2 0.7 0
v 0.2 0.8 0
v 0.3 0.4 0
v 0.3 0.6 0
v 0.3 0.7 0
v 0.3 0.8 0
v 0.4 0.4 0
v 0.4 0.6 0
v 0.6 0.7 0
v 0.6 0.8 0
v 0.7 0.7 0
v 0.7 0.8 0
v 0.8 0.4 0
v 0.8 0.8 0
v 0.8 0.9 0
v 0.1 0.9 -0.1
v 0.1 1 -0.1
v 0.7 0.9 -0.1
v 0.7 1 -0.1
v 0.2 1 -0.2
v 0.2 1.1 -0.2
v 0.6 1 -0.2
v 0.6 1.1 -0.2
v 0.3 1.1 -0.3
v 0.3 1.2 -0.3
v 0.5 1.1 -0.3
v 0.5 1.2 -0.3
v 0.1 0.4 -0.7
v 0.1 0.8 -0.7
v 0.7 0.4 -0.7
v 0.7 0.8 -0.7
v 0.1 0.4 -0.1
v 0.1 0.8 -0.1
v 0.2 0.7 -0.1
v 0.2 0.8 -0.1
v 0.3 0.4 -0.1
v 0.3 0.6 -0.1
v 0.3 0.7 -0.1
v 0.3 0.8 -0.1
v 0.4 0.4 -0.1
v 0.4 0.6 -0.1
v 0.6 0.7 -0.1
v 0.6 0.8 -0.1
v 0.7 0.4 -0.1
v 0.7 0.7 -0.1
v 0.7 0.8 -0.1
v 0.3 1.1 -0.5
v 0.3 1.2 -0.5
v 0.5 1.1 -0.5
v 0.5 1.2 -0.5
v 0.2 1 -0.6
v 0.2 1.1 -0.6
v 0.6 1 -0.6
v 0.6 1.1 -0.6
v 0.1 0.9 -0.7
v 0.1 1 -0.7
v 0.7 0.9 -0.7
v 0.7 1 -0.7
v 0 0.4 -0.8
v 0 0.8 -0.8
v 0 0.9 -0.8
v 0.8 0.4 -0.8
v 0.8 0.8 -0.8
v 0.8 0.9 -0.8
v 0 0.4 0
v 0.3 0.4 0
v 0.4 0.4 0
v 0.8 0.4 0
v 0.1 0.4 -0.1
v 0.3 0.4 -0.1
v 0.4 0.4 -0.1
v 0.7 0.4 -0.1
v 0.1 0.4 -0.7
v 0.7 0.4 -0.7
v 0 0.4 -0.8
v 0.8 0.4 -0.8
v 0.1 0.8 -0.1
v 0.2 0.8 -0.1
v 0.3 0.8 -0.1
v 0.6 0.8 -0.1
v 0.7 0.8 -0.1
v 0.1 0.8 -0.7
v 0.7 0.8 -0.7
v 0 0.9 0
v 0.8 0.9 0
v 0.1 0.9 -0.1
v 0.7 0.9 -0.1
v 0.1 0.9 -0.7
v 0.7 0.9 -0.7
v 0 0.9 -0.8
v 0.8 0.9 -0.8
v 0.1 1 -0.1
v 0.7 1 -0.1
v 0.2 1 -0.2
v 0.6 1 -0.2
v 0.2 1 -0.6
v 0.6 1 -0.6
v 0.1 1 -0.7
v 0.7 1 -0.7
v 0.2 1.1 -0.2
v 0.6 1.1 -0.2
v 0.3 1.1 -0.3
v 0.5 1.1 -0.3
v 0.3 1.1 -0.5
v 0.5 1.1 -0.5
v 0.2 1.1 -0.6
v 0.6 1.1 -0.6
v 0.3 1.2 -0.3
v 0.5 1.2 -0.3
v 0.3 1.2 -0.5
v 0.5 1.2 -0.5

# faces
f 3/2/1 2/2/1 1/2/1
f 4/2/1 2/2/1 3/2/1
f 5/1/1 4/1/1 3/1/1
f 6/1/1 4/1/1 5/1/1
f 9/1/1 8/1/1 7/1/1
f 10/1/1 8/1/1 9/1/1
f 13/1/1 12/1/1 11/1/1
f 14/1/1 12/1/1 13/1/1
f 17/1/1 16/1/1 15/1/1
f 18/1/1 16/1/1 17/1/1
f 21/2/1 20/2/1 19/2/1
f 22/2/1 20/2/1 21/2/1
f 23/2/1 20/2/1 22/2/1
f 24/2/2 25/2/2 26/2/2
f 26/2/2 25/2/2 27/2/2
f 28/1/2 29/1/2 30/1/2
f 30/1/2 29/1/2 31/1/2
f 32/1/2 33/1/2 34/1/2
f 34/1/2 33/1/2 35/1/2
f 36/1/2 37/1/2 38/1/2
f 38/1/2 37/1/2 39/1/2
f 40/2/2 41/2/2 42/2/2
f 42/2/2 41/2/2 43/2/2
f 42/1/2 43/1/2 44/1/2
f 44/1/2 43/1/2 45/1/2
f 49/2/3 47/2/3 46/2/3
f 50/1/3 48/1/3 47/1/3
f 50/2/3 47/2/3 49/2/3
f 51/2/3 49/2/3 46/2/3
f 52/2/3 49/2/3 51/2/3
f 53/4/3 50/4/3 49/4/3
f 53/2/3 49/2/3 52/2/3
f 54/1/3 48/1/3 50/1/3
f 54/4/3 50/4/3 53/4/3
f 55/3/3 52/3/3 51/3/3
f 56/2/3 53/2/3 52/2/3
f 56/3/3 52/3/3 55/3/3
f 56/2/3 54/2/3 53/2/3
f 57/2/3 56/2/3 55/2/3
f 57/2/3 54/2/3 56/2/3
f 58/1/3 48/1/3 54/1/3
f 58/2/3 54/2/3 57/2/3
f 59/2/3 57/2/3 55/2/3
f 59/4/3 58/4/3 57/4/3
f 60/1/3 48/1/3 58/1/3
f 60/4/3 58/4/3 59/4/3
f 61/2/3 59/2/3 55/2/3
f 61/2/3 60/2/3 59/2/3
f 62/1/3 48/1/3 60/1/3
f 62/2/3 60/2/3 61/2/3
f 63/1/3 48/1/3 62/1/3
f 66/1/3 65/1/3 64/1/3
f 67/1/3 65/1/3 66/1/3
f 70/1/3 69/1/3 68/1/3
f 71/1/3 69/1/3 70/1/3
f 74/1/3 73/1/3 72/1/3
f 75/1/3 73/1/3 74/1/3
f 78/2/3 77/2/3 76/2/3
f 79/2/3 77/2/3 78/2/3
f 80/2/4 81/2/4 82/2/4
f 82/2/4 81/2/4 83/2/4
f 80/2/4 82/2/4 84/2/4
f 84/2/4 82/2/4 85/2/4
f 82/4/4 83/4/4 86/4/4
f 85/2/4 82/2/4 86/2/4
f 86/4/4 83/4/4 87/4/4
f 84/3/4 85/3/4 88/3/4
f 85/2/4 86/2/4 89/2/4
f 88/3/4 85/3/4 89/3/4
f 86/2/4 87/2/4 89/2/4
f 88/2/4 89/2/4 90/2/4
f 89/2/4 87/2/4 90/2/4
f 90/2/4 87/2/4 91/2/4
f 88/2/4 90/2/4 92/2/4
f 90/4/4 91/4/4 93/4/4
f 92/2/4 90/2/4 93/2/4
f 93/4/4 91/4/4 94/4/4
f 95/1/4 96/1/4 97/1/4
f 97/1/4 96/1/4 98/1/4
f 99/1/4 100/1/4 101/1/4
f 101/1/4 100/1/4 102/1/4
f 103/1/4 104/1/4 105/1/4
f 105/1/4 104/1/4 106/1/4
f 107/2/4 108/2/4 110/2/4
f 108/1/4 109/1/4 111/1/4
f 110/2/4 108/2/4 111/2/4
f 111/1/4 109/1/4 112/1/4
f 117/2/5 114/2/5 113/2/5
f 118/3/5 115/3/5 114/3/5
f 118/2/5 114/2/5 117/2/5
f 119/2/5 116/2/5 115/2/5
f 119/3/5 115/3/5 118/3/5
f 120/2/5 116/2/5 119/2/5
f 121/2/5 117/2/5 113/2/5
f 122/2/5 116/2/5 120/2/5
f 123/2/5 121/2/5 113/2/5
f 123/2/5 122/2/5 121/2/5
f 124/2/5 116/2/5 122/2/5
f 124/2/5 122/2/5 123/2/5
f 130/1/5 126/1/5 125/1/5
f 130/1/5 129/1/5 128/1/5
f 130/1/5 128/1/5 127/1/5
f 130/1/5 127/1/5 126/1/5
f 131/1/5 129/1/5 130/1/5
f 132/1/6 133/1/6 134/1/6
f 134/1/6 133/1/6 135/1/6
f 132/1/6 134/1/6 136/1/6
f 135/1/6 133/1/6 137/1/6
f 132/1/6 136/1/6 138/1/6
f 136/1/6 137/1/6 138/1/6
f 137/1/6 133/1/6 139/1/6
f 138/1/6 137/1/6 139/1/6
f 140/1/6 141/1/6 142/1/6
f 142/1/6 141/1/6 143/1/6
f 140/1/6 142/1/6 144/1/6
f 143/1/6 141/1/6 145/1/6
f 140/1/6 144/1/6 146/1/6
f 144/1/6 145/1/6 146/1/6
f 145/1/6 141/1/6 147/1/6
f 146/1/6 145/1/6 147/1/6
f 148/1/6 149/1/6 150/1/6
f 150/1/6 149/1/6 151/1/6
f 148/1/6 150/1/6 152/1/6
f 151/1/6 149/1/6 153/1/6
f 148/1/6 152/1/6 154/1/6
f 152/1/6 153/1/6 154/1/6
f 153/1/6 149/1/6 155/1/6
f 154/1/6 153/1/6 155/1/6
f 156/1/6 157/1/6 158/1/6
f 158/1/6 157/1/6 159/1/6
